<?xml version="1.0" encoding="UTF-8"?><svg xmlns="http://www.w3.org/2000/svg" viewBox="0 0 50 50"><path style="line-height:normal;text-indent:0;text-align:start;text-decoration-line:none;text-decoration-style:solid;text-decoration-color:#000;text-transform:none;block-progression:tb;isolation:auto;mix-blend-mode:normal" d="M9 4C6.25 4 4 6.25 4 9v32c0 2.75 2.25 5 5 5h32c2.75 0 5-2.25 5-5V9c0-2.75-2.25-5-5-5H9zm0 2h32c1.668 0 3 1.332 3 3v32c0 1.668-1.332 3-3 3H9c-1.668 0-3-1.332-3-3V9c0-1.668 1.332-3 3-3zm9.375 9.998c-.179 0-.357.176-.357.35v1.302c0 .175.178.35.357.35h1.436l4.294 8.02-3.4 6.1L14.264 18h1.379c.179 0 .357-.174.357-.348V16.35c0-.175-.178-.35-.357-.35H8.357c-.179 0-.357.174-.357.348v1.302c0 .175.178.35.357.35h2.149l9.305 18.826c.09.087.178.174.357.174s.27-.087.36-.174l4.742-8.539 4.382 8.54c.09.086.18.173.36.173.178 0 .266-.087.355-.174l9.217-18.914h2.059c.179 0 .357-.174.357-.348V16.35c0-.175-.178-.35-.357-.35h-6.286c-.179 0-.357.174-.357.348v1.302c0 .175.18.35.357.35h1.811l-6.711 14.12-3.488-6.972L31.264 18h1.379c.179 0 .357-.174.357-.348V16.35c0-.175-.178-.35-.357-.35h-5.286c-.179 0-.357.174-.357.348v1.302c0 .175.178.35.357.35h1.4l-2.952 4.885L23.389 18h1.254c.179 0 .357-.174.357-.348V16.35c0-.175-.178-.351-.357-.352h-6.268z" font-weight="400" font-family="sans-serif" white-space="normal" overflow="visible"/><metadata><rdf:RDF xmlns:rdf="http://www.w3.org/1999/02/22-rdf-syntax-ns#" xmlns:rdfs="http://www.w3.org/2000/01/rdf-schema#" xmlns:dc="http://purl.org/dc/elements/1.1/"><rdf:Description about="https://iconscout.com/legal#licenses" dc:title="wikipedia" dc:description="wikipedia" dc:publisher="Iconscout" dc:date="2017-12-09" dc:format="image/svg+xml" dc:language="en"><dc:creator><rdf:Bag><rdf:li>Icons8</rdf:li></rdf:Bag></dc:creator></rdf:Description></rdf:RDF></metadata></svg>